<?xml version="1.0" encoding="iso-8859-1"?>
<!-- Uploaded to: SVG Repo, www.svgrepo.com, Generator: SVG Repo Mixer Tools -->
<!DOCTYPE svg PUBLIC "-//W3C//DTD SVG 1.1//EN" "http://www.w3.org/Graphics/SVG/1.1/DTD/svg11.dtd">
<svg height="800px" width="800px" version="1.1" id="Capa_1" xmlns="http://www.w3.org/2000/svg" xmlns:xlink="http://www.w3.org/1999/xlink" 
	 viewBox="0 0 297.5 297.5" xml:space="preserve">
<g id="XMLID_35_">
	<g>
		<path style="fill:#FFA800;" d="M248.29,72.67c-5.81-2.07-12.16-3.22-18.8-3.22c-16.49,0-31.15,7.04-40.37,17.91
			c-9.21-10.87-23.88-17.91-40.37-17.91s-31.15,7.04-40.37,17.91C99.17,76.49,84.5,69.45,68.01,69.45c-6.64,0-12.98,1.15-18.79,3.22
			c18.15-30.92,55.95-52.24,99.53-52.24C192.34,20.43,230.13,41.75,248.29,72.67z"/>
		<path d="M127.04,238.53c-0.32-1.42-21.47-92.4-28.58-122.88c-1.36-13.44-13.75-26.01-30.45-26.01c-15.49,0-28.29,9.47-30.06,21.63
			L127.04,238.53z M170.47,238.53l89.08-127.26c-1.76-12.16-14.57-21.63-30.06-21.63c-16.69,0-29.08,12.57-30.45,26.01
			C191.93,146.13,170.79,237.11,170.47,238.53z M279.95,114.15c0,2.13-0.67,4.11-1.8,5.74c-0.01,0.02-0.01,0.03-0.02,0.04
			L157.02,292.95c-1.89,2.69-4.97,4.3-8.27,4.3c-3.29,0-6.38-1.61-8.26-4.3L19.38,119.93c-0.01-0.01-0.02-0.02-0.03-0.04
			c-1.13-1.63-1.8-3.61-1.8-5.74c0-62.81,58.86-113.9,131.2-113.9C221.1,0.25,279.95,51.34,279.95,114.15z M229.49,69.45
			c6.64,0,12.99,1.15,18.8,3.22c-18.16-30.92-55.95-52.24-99.54-52.24c-43.58,0-81.38,21.32-99.53,52.24
			c5.81-2.07,12.15-3.22,18.79-3.22c16.49,0,31.16,7.04,40.37,17.91c9.22-10.87,23.88-17.91,40.37-17.91s31.16,7.04,40.37,17.91
			C198.34,76.49,213,69.45,229.49,69.45z M179,113.12c1.16-13-13.98-23.48-30.25-23.48s-31.4,10.48-30.24,23.48
			c2.96,33.15,30.24,129.62,30.24,129.62S176.04,146.27,179,113.12z"/>
	</g>
	<g>
	</g>
</g>
</svg>